# xmcd
#
# Track frame offsets:
#	150
#	14468
#	28785
#	43887
#	60979
#	78082
#	93648
#	113536
#	132770
#	147232
#	165299
#	179248
#	193205
#
# Disc length: 2816 seconds
#
# Revision: 0
# Processed by: cddbd v1.5.2PL0 Copyright (c) Steve Scherf et al.
# Submitted via: EasyCDDAExtractor 10.0.3.1
#
DISCID=ac0afe0d
DTITLE=Various Artist - Routes To Blues
DYEAR=2006
DGENRE=Blues
TTITLE0=The Kill Devil Hills - New Country
TTITLE1=The Dave Mann Collective - Extraordinary
TTITLE2=Dusk - Butterflies
TTITLE3=Andrew Winton - Number's Down
TTITLE4=The Wah Trees - Punch Drunk At The Gates
TTITLE5=James Michael Thompson - Broken Bone Blues
TTITLE6=Simon London And The Spirits - Simple Man
TTITLE7=Josivac - My Friend
TTITLE8=The B-Movie Heroes - Atom Baby
TTITLE9=Double Entrendre - Plane Crash
TTITLE10=Freya Hanly - Bar Fly
TTITLE11=Xave Brown - Last Petal
TTITLE12=Khin Myint - The Things We Do For Love
EXTD=
EXTT0=
EXTT1=
EXTT2=
EXTT3=
EXTT4=
EXTT5=
EXTT6=
EXTT7=
EXTT8=
EXTT9=
EXTT10=
EXTT11=
EXTT12=
PLAYORDER=
